<?xml version="1.0" encoding="iso-8859-1"?>
<!-- Generator: Adobe Illustrator 19.0.0, SVG Export Plug-In . SVG Version: 6.00 Build 0)  -->
<svg version="1.1" id="Layer_1" xmlns="http://www.w3.org/2000/svg" xmlns:xlink="http://www.w3.org/1999/xlink" x="0px" y="0px"
	 viewBox="0 0 512 512" style="enable-background:new 0 0 512 512;" xml:space="preserve">
<polygon style="fill:#77C0BC;" points="0,144.696 105.739,275.478 256,361.739 256,144.696 "/>
<polygon style="fill:#55A7A2;" points="256,144.696 256,361.739 406.261,275.478 512,144.696 "/>
<polygon style="fill:#F2EBD9;" points="72.348,0 72.348,384 278.261,384 256,0 "/>
<rect x="256" style="fill:#F9DCA7;" width="183.652" height="384"/>
<polygon style="fill:#C1E8E6;" points="0,144.696 0,512 130.569,442.435 216.615,328.348 "/>
<g>
	<polygon style="fill:#98D9D5;" points="512,144.696 512,512 381.431,442.435 295.385,328.348 	"/>
	<path style="fill:#98D9D5;" d="M216.615,328.348C160.218,376.162,0,512,0,512h256l22.261-75.13L256,361.739L216.615,328.348z"/>
</g>
<polygon style="fill:#77C0BC;" points="295.385,328.348 256,361.739 256,512 512,512 "/>
<g>
</g>
<g>
</g>
<g>
</g>
<g>
</g>
<g>
</g>
<g>
</g>
<g>
</g>
<g>
</g>
<g>
</g>
<g>
</g>
<g>
</g>
<g>
</g>
<g>
</g>
<g>
</g>
<g>
</g>
</svg>
